<svg class="e-font-icon-svg e-eicon-bag-light" viewBox="0 0 1000 1000" xmlns="http://www.w3.org/2000/svg"><path d="M333 292L333 208C339 100 397 43 501 43 605 43 662 100 667 209V292H750C796 292 833 329 833 375V875C833 921 796 958 750 958H250C204 958 167 921 167 875V375C167 329 204 292 250 292H333ZM375 292H625L625 210C622 125 582 85 501 85 420 85 380 125 375 209L375 292ZM333 333H250C227 333 208 352 208 375V875C208 898 227 917 250 917H750C773 917 792 898 792 875V375C792 352 773 333 750 333H667V454C667 466 658 475 646 475S625 466 625 454L625 333H375L375 454C375 466 366 475 354 475 343 475 333 466 333 454L333 333Z"/></svg>